<svg width="1280" height="720" viewBox="0 0 1280 720" fill="none" xmlns="http://www.w3.org/2000/svg">
<g clip-path="url(#clip0_111_3)">
<rect width="1280" height="720" rx="35" fill="#141218"/>
<path d="M472.767 326.176V320.091H501.438V326.176H490.75V355H483.455V326.176H472.767ZM503.304 355V328.818H510.344V333.386H510.616C511.094 331.761 511.895 330.534 513.02 329.705C514.145 328.864 515.44 328.443 516.906 328.443C517.27 328.443 517.662 328.466 518.082 328.511C518.503 328.557 518.872 328.619 519.19 328.699V335.142C518.849 335.04 518.378 334.949 517.776 334.869C517.173 334.79 516.622 334.75 516.122 334.75C515.054 334.75 514.099 334.983 513.259 335.449C512.429 335.903 511.77 336.54 511.281 337.358C510.804 338.176 510.565 339.119 510.565 340.188V355H503.304ZM529.661 355.494C527.99 355.494 526.501 355.205 525.195 354.625C523.888 354.034 522.854 353.165 522.092 352.017C521.342 350.858 520.967 349.415 520.967 347.688C520.967 346.233 521.234 345.011 521.768 344.023C522.303 343.034 523.03 342.239 523.95 341.636C524.871 341.034 525.916 340.58 527.087 340.273C528.268 339.966 529.507 339.75 530.803 339.625C532.325 339.466 533.553 339.318 534.484 339.182C535.416 339.034 536.092 338.818 536.513 338.534C536.933 338.25 537.143 337.83 537.143 337.273V337.17C537.143 336.091 536.803 335.256 536.121 334.665C535.45 334.074 534.496 333.778 533.257 333.778C531.95 333.778 530.911 334.068 530.138 334.648C529.365 335.216 528.854 335.932 528.604 336.795L521.888 336.25C522.229 334.659 522.899 333.284 523.899 332.125C524.899 330.955 526.189 330.057 527.768 329.432C529.359 328.795 531.2 328.477 533.291 328.477C534.746 328.477 536.138 328.648 537.467 328.989C538.808 329.33 539.996 329.858 541.03 330.574C542.075 331.29 542.899 332.21 543.501 333.335C544.104 334.449 544.405 335.784 544.405 337.341V355H537.518V351.369H537.314C536.893 352.188 536.331 352.909 535.626 353.534C534.922 354.148 534.075 354.631 533.087 354.983C532.098 355.324 530.956 355.494 529.661 355.494ZM531.74 350.483C532.808 350.483 533.751 350.273 534.57 349.852C535.388 349.42 536.03 348.841 536.496 348.114C536.962 347.386 537.195 346.562 537.195 345.642V342.864C536.967 343.011 536.655 343.148 536.257 343.273C535.871 343.386 535.433 343.494 534.945 343.597C534.456 343.687 533.967 343.773 533.479 343.852C532.99 343.92 532.547 343.983 532.149 344.04C531.297 344.165 530.553 344.364 529.916 344.636C529.28 344.909 528.786 345.278 528.433 345.744C528.081 346.199 527.905 346.767 527.905 347.449C527.905 348.438 528.263 349.193 528.979 349.716C529.706 350.227 530.626 350.483 531.74 350.483ZM550.038 355V328.818H557.3V355H550.038ZM553.686 325.443C552.607 325.443 551.68 325.085 550.908 324.369C550.146 323.642 549.766 322.773 549.766 321.761C549.766 320.761 550.146 319.903 550.908 319.188C551.68 318.46 552.607 318.097 553.686 318.097C554.766 318.097 555.686 318.46 556.447 319.188C557.22 319.903 557.607 320.761 557.607 321.761C557.607 322.773 557.22 323.642 556.447 324.369C555.686 325.085 554.766 325.443 553.686 325.443ZM570.378 339.864V355H563.116V328.818H570.037V333.438H570.344C570.923 331.915 571.895 330.71 573.259 329.824C574.622 328.926 576.276 328.477 578.219 328.477C580.037 328.477 581.622 328.875 582.974 329.67C584.327 330.466 585.378 331.602 586.128 333.08C586.878 334.545 587.253 336.295 587.253 338.33V355H579.991V339.625C580.003 338.023 579.594 336.773 578.764 335.875C577.935 334.966 576.793 334.511 575.338 334.511C574.361 334.511 573.497 334.722 572.747 335.142C572.009 335.562 571.429 336.176 571.009 336.983C570.599 337.778 570.389 338.739 570.378 339.864ZM604.222 320.091H613.324L622.938 343.545H623.347L632.96 320.091H642.062V355H634.903V332.278H634.614L625.58 354.83H620.705L611.67 332.193H611.381V355H604.222V320.091ZM655.473 355.494C653.803 355.494 652.314 355.205 651.007 354.625C649.7 354.034 648.666 353.165 647.905 352.017C647.155 350.858 646.78 349.415 646.78 347.688C646.78 346.233 647.047 345.011 647.581 344.023C648.115 343.034 648.842 342.239 649.763 341.636C650.683 341.034 651.729 340.58 652.899 340.273C654.081 339.966 655.32 339.75 656.615 339.625C658.138 339.466 659.365 339.318 660.297 339.182C661.229 339.034 661.905 338.818 662.325 338.534C662.746 338.25 662.956 337.83 662.956 337.273V337.17C662.956 336.091 662.615 335.256 661.933 334.665C661.263 334.074 660.308 333.778 659.07 333.778C657.763 333.778 656.723 334.068 655.95 334.648C655.178 335.216 654.666 335.932 654.416 336.795L647.7 336.25C648.041 334.659 648.712 333.284 649.712 332.125C650.712 330.955 652.001 330.057 653.581 329.432C655.172 328.795 657.013 328.477 659.104 328.477C660.558 328.477 661.95 328.648 663.28 328.989C664.621 329.33 665.808 329.858 666.842 330.574C667.888 331.29 668.712 332.21 669.314 333.335C669.916 334.449 670.217 335.784 670.217 337.341V355H663.331V351.369H663.126C662.706 352.188 662.143 352.909 661.439 353.534C660.734 354.148 659.888 354.631 658.899 354.983C657.911 355.324 656.768 355.494 655.473 355.494ZM657.553 350.483C658.621 350.483 659.564 350.273 660.382 349.852C661.2 349.42 661.842 348.841 662.308 348.114C662.774 347.386 663.007 346.562 663.007 345.642V342.864C662.78 343.011 662.467 343.148 662.07 343.273C661.683 343.386 661.246 343.494 660.757 343.597C660.268 343.687 659.78 343.773 659.291 343.852C658.803 343.92 658.359 343.983 657.962 344.04C657.109 344.165 656.365 344.364 655.729 344.636C655.092 344.909 654.598 345.278 654.246 345.744C653.893 346.199 653.717 346.767 653.717 347.449C653.717 348.438 654.075 349.193 654.791 349.716C655.518 350.227 656.439 350.483 657.553 350.483ZM683.112 320.091V355H675.851V320.091H683.112ZM696.395 355.494C694.724 355.494 693.236 355.205 691.929 354.625C690.622 354.034 689.588 353.165 688.827 352.017C688.077 350.858 687.702 349.415 687.702 347.688C687.702 346.233 687.969 345.011 688.503 344.023C689.037 343.034 689.764 342.239 690.685 341.636C691.605 341.034 692.651 340.58 693.821 340.273C695.003 339.966 696.241 339.75 697.537 339.625C699.06 339.466 700.287 339.318 701.219 339.182C702.151 339.034 702.827 338.818 703.247 338.534C703.668 338.25 703.878 337.83 703.878 337.273V337.17C703.878 336.091 703.537 335.256 702.855 334.665C702.185 334.074 701.23 333.778 699.991 333.778C698.685 333.778 697.645 334.068 696.872 334.648C696.099 335.216 695.588 335.932 695.338 336.795L688.622 336.25C688.963 334.659 689.634 333.284 690.634 332.125C691.634 330.955 692.923 330.057 694.503 329.432C696.094 328.795 697.935 328.477 700.026 328.477C701.48 328.477 702.872 328.648 704.202 328.989C705.543 329.33 706.73 329.858 707.764 330.574C708.81 331.29 709.634 332.21 710.236 333.335C710.838 334.449 711.139 335.784 711.139 337.341V355H704.253V351.369H704.048C703.628 352.188 703.065 352.909 702.361 353.534C701.656 354.148 700.81 354.631 699.821 354.983C698.832 355.324 697.69 355.494 696.395 355.494ZM698.474 350.483C699.543 350.483 700.486 350.273 701.304 349.852C702.122 349.42 702.764 348.841 703.23 348.114C703.696 347.386 703.929 346.562 703.929 345.642V342.864C703.702 343.011 703.389 343.148 702.991 343.273C702.605 343.386 702.168 343.494 701.679 343.597C701.19 343.687 700.702 343.773 700.213 343.852C699.724 343.92 699.281 343.983 698.884 344.04C698.031 344.165 697.287 344.364 696.651 344.636C696.014 344.909 695.52 345.278 695.168 345.744C694.815 346.199 694.639 346.767 694.639 347.449C694.639 348.438 694.997 349.193 695.713 349.716C696.44 350.227 697.361 350.483 698.474 350.483ZM720.318 364.818C719.398 364.818 718.534 364.744 717.727 364.597C716.932 364.46 716.273 364.284 715.75 364.068L717.386 358.648C718.239 358.909 719.006 359.051 719.688 359.074C720.381 359.097 720.977 358.938 721.477 358.597C721.989 358.256 722.403 357.676 722.722 356.858L723.148 355.75L713.756 328.818H721.392L726.812 348.045H727.085L732.557 328.818H740.244L730.068 357.83C729.58 359.239 728.915 360.466 728.074 361.511C727.244 362.568 726.193 363.381 724.92 363.949C723.648 364.528 722.114 364.818 720.318 364.818ZM765.744 336.284L759.097 336.693C758.983 336.125 758.739 335.614 758.364 335.159C757.989 334.693 757.494 334.324 756.881 334.051C756.278 333.767 755.557 333.625 754.716 333.625C753.591 333.625 752.642 333.864 751.869 334.341C751.097 334.807 750.71 335.432 750.71 336.216C750.71 336.841 750.96 337.369 751.46 337.801C751.96 338.233 752.818 338.58 754.034 338.841L758.773 339.795C761.318 340.318 763.216 341.159 764.466 342.318C765.716 343.477 766.341 345 766.341 346.886C766.341 348.602 765.835 350.108 764.824 351.403C763.824 352.699 762.449 353.71 760.699 354.438C758.96 355.153 756.955 355.511 754.682 355.511C751.216 355.511 748.455 354.79 746.398 353.347C744.352 351.892 743.153 349.915 742.801 347.415L749.943 347.04C750.159 348.097 750.682 348.903 751.511 349.46C752.341 350.006 753.403 350.278 754.699 350.278C755.972 350.278 756.994 350.034 757.767 349.545C758.551 349.045 758.949 348.403 758.96 347.619C758.949 346.96 758.67 346.42 758.125 346C757.58 345.568 756.739 345.239 755.602 345.011L751.068 344.108C748.511 343.597 746.608 342.71 745.358 341.449C744.119 340.187 743.5 338.58 743.5 336.625C743.5 334.943 743.955 333.494 744.864 332.278C745.784 331.062 747.074 330.125 748.733 329.466C750.403 328.807 752.358 328.477 754.597 328.477C757.903 328.477 760.506 329.176 762.403 330.574C764.313 331.972 765.426 333.875 765.744 336.284ZM770.913 355V328.818H778.175V355H770.913ZM774.561 325.443C773.482 325.443 772.555 325.085 771.783 324.369C771.021 323.642 770.641 322.773 770.641 321.761C770.641 320.761 771.021 319.903 771.783 319.188C772.555 318.46 773.482 318.097 774.561 318.097C775.641 318.097 776.561 318.46 777.322 319.188C778.095 319.903 778.482 320.761 778.482 321.761C778.482 322.773 778.095 323.642 777.322 324.369C776.561 325.085 775.641 325.443 774.561 325.443ZM791.457 355.494C789.787 355.494 788.298 355.205 786.991 354.625C785.685 354.034 784.651 353.165 783.889 352.017C783.139 350.858 782.764 349.415 782.764 347.688C782.764 346.233 783.031 345.011 783.565 344.023C784.099 343.034 784.827 342.239 785.747 341.636C786.668 341.034 787.713 340.58 788.884 340.273C790.065 339.966 791.304 339.75 792.599 339.625C794.122 339.466 795.349 339.318 796.281 339.182C797.213 339.034 797.889 338.818 798.31 338.534C798.73 338.25 798.94 337.83 798.94 337.273V337.17C798.94 336.091 798.599 335.256 797.918 334.665C797.247 334.074 796.293 333.778 795.054 333.778C793.747 333.778 792.707 334.068 791.935 334.648C791.162 335.216 790.651 335.932 790.401 336.795L783.685 336.25C784.026 334.659 784.696 333.284 785.696 332.125C786.696 330.955 787.986 330.057 789.565 329.432C791.156 328.795 792.997 328.477 795.088 328.477C796.543 328.477 797.935 328.648 799.264 328.989C800.605 329.33 801.793 329.858 802.827 330.574C803.872 331.29 804.696 332.21 805.298 333.335C805.901 334.449 806.202 335.784 806.202 337.341V355H799.315V351.369H799.111C798.69 352.188 798.128 352.909 797.423 353.534C796.719 354.148 795.872 354.631 794.884 354.983C793.895 355.324 792.753 355.494 791.457 355.494ZM793.537 350.483C794.605 350.483 795.548 350.273 796.366 349.852C797.185 349.42 797.827 348.841 798.293 348.114C798.759 347.386 798.991 346.562 798.991 345.642V342.864C798.764 343.011 798.452 343.148 798.054 343.273C797.668 343.386 797.23 343.494 796.741 343.597C796.253 343.687 795.764 343.773 795.276 343.852C794.787 343.92 794.344 343.983 793.946 344.04C793.094 344.165 792.349 344.364 791.713 344.636C791.077 344.909 790.582 345.278 790.23 345.744C789.878 346.199 789.702 346.767 789.702 347.449C789.702 348.438 790.06 349.193 790.776 349.716C791.503 350.227 792.423 350.483 793.537 350.483Z" fill="white"/>
<path d="M446.119 434.545H450.67L455.477 446.273H455.681L460.488 434.545H465.039V452H461.46V440.639H461.315L456.798 451.915H454.36L449.843 440.597H449.698V452H446.119V434.545ZM471.744 452.247C470.909 452.247 470.165 452.102 469.511 451.812C468.858 451.517 468.341 451.082 467.96 450.509C467.585 449.929 467.398 449.207 467.398 448.344C467.398 447.616 467.531 447.006 467.798 446.511C468.065 446.017 468.429 445.619 468.889 445.318C469.349 445.017 469.872 444.79 470.457 444.636C471.048 444.483 471.668 444.375 472.315 444.312C473.077 444.233 473.69 444.159 474.156 444.091C474.622 444.017 474.96 443.909 475.17 443.767C475.381 443.625 475.486 443.415 475.486 443.136V443.085C475.486 442.545 475.315 442.128 474.974 441.832C474.639 441.537 474.162 441.389 473.543 441.389C472.889 441.389 472.369 441.534 471.983 441.824C471.597 442.108 471.341 442.466 471.216 442.898L467.858 442.625C468.028 441.83 468.364 441.142 468.864 440.562C469.364 439.977 470.009 439.528 470.798 439.216C471.594 438.898 472.514 438.739 473.56 438.739C474.287 438.739 474.983 438.824 475.648 438.994C476.318 439.165 476.912 439.429 477.429 439.787C477.952 440.145 478.364 440.605 478.665 441.168C478.966 441.724 479.116 442.392 479.116 443.17V452H475.673V450.185H475.571C475.361 450.594 475.08 450.955 474.727 451.267C474.375 451.574 473.952 451.815 473.457 451.991C472.963 452.162 472.392 452.247 471.744 452.247ZM472.784 449.741C473.318 449.741 473.79 449.636 474.199 449.426C474.608 449.21 474.929 448.92 475.162 448.557C475.395 448.193 475.511 447.781 475.511 447.321V445.932C475.398 446.006 475.241 446.074 475.043 446.136C474.849 446.193 474.631 446.247 474.386 446.298C474.142 446.344 473.898 446.386 473.653 446.426C473.409 446.46 473.188 446.491 472.989 446.52C472.563 446.582 472.19 446.682 471.872 446.818C471.554 446.955 471.307 447.139 471.131 447.372C470.955 447.599 470.866 447.884 470.866 448.224C470.866 448.719 471.045 449.097 471.403 449.358C471.767 449.614 472.227 449.741 472.784 449.741ZM485.564 434.545V452H481.933V434.545H485.564ZM492.205 452.247C491.37 452.247 490.626 452.102 489.972 451.812C489.319 451.517 488.802 451.082 488.421 450.509C488.046 449.929 487.859 449.207 487.859 448.344C487.859 447.616 487.992 447.006 488.259 446.511C488.526 446.017 488.89 445.619 489.35 445.318C489.81 445.017 490.333 444.79 490.918 444.636C491.509 444.483 492.129 444.375 492.776 444.312C493.538 444.233 494.151 444.159 494.617 444.091C495.083 444.017 495.421 443.909 495.631 443.767C495.842 443.625 495.947 443.415 495.947 443.136V443.085C495.947 442.545 495.776 442.128 495.435 441.832C495.1 441.537 494.623 441.389 494.004 441.389C493.35 441.389 492.83 441.534 492.444 441.824C492.058 442.108 491.802 442.466 491.677 442.898L488.319 442.625C488.489 441.83 488.825 441.142 489.325 440.562C489.825 439.977 490.469 439.528 491.259 439.216C492.055 438.898 492.975 438.739 494.021 438.739C494.748 438.739 495.444 438.824 496.109 438.994C496.779 439.165 497.373 439.429 497.89 439.787C498.413 440.145 498.825 440.605 499.126 441.168C499.427 441.724 499.577 442.392 499.577 443.17V452H496.134V450.185H496.032C495.822 450.594 495.54 450.955 495.188 451.267C494.836 451.574 494.413 451.815 493.918 451.991C493.424 452.162 492.853 452.247 492.205 452.247ZM493.245 449.741C493.779 449.741 494.251 449.636 494.66 449.426C495.069 449.21 495.39 448.92 495.623 448.557C495.856 448.193 495.972 447.781 495.972 447.321V445.932C495.859 446.006 495.702 446.074 495.504 446.136C495.31 446.193 495.092 446.247 494.847 446.298C494.603 446.344 494.359 446.386 494.114 446.426C493.87 446.46 493.648 446.491 493.45 446.52C493.023 446.582 492.651 446.682 492.333 446.818C492.015 446.955 491.768 447.139 491.592 447.372C491.415 447.599 491.327 447.884 491.327 448.224C491.327 448.719 491.506 449.097 491.864 449.358C492.228 449.614 492.688 449.741 493.245 449.741ZM504.167 456.909C503.707 456.909 503.275 456.872 502.871 456.798C502.474 456.73 502.144 456.642 501.883 456.534L502.701 453.824C503.127 453.955 503.511 454.026 503.852 454.037C504.198 454.048 504.496 453.969 504.746 453.798C505.002 453.628 505.21 453.338 505.369 452.929L505.582 452.375L500.886 438.909H504.704L507.414 448.523H507.55L510.286 438.909H514.13L509.042 453.415C508.798 454.119 508.465 454.733 508.045 455.256C507.63 455.784 507.104 456.19 506.468 456.474C505.832 456.764 505.065 456.909 504.167 456.909ZM526.88 442.642L523.556 442.847C523.499 442.562 523.377 442.307 523.19 442.08C523.002 441.847 522.755 441.662 522.448 441.526C522.147 441.384 521.786 441.312 521.366 441.312C520.803 441.312 520.329 441.432 519.942 441.67C519.556 441.903 519.363 442.216 519.363 442.608C519.363 442.92 519.488 443.185 519.738 443.401C519.988 443.616 520.417 443.79 521.025 443.92L523.394 444.398C524.667 444.659 525.616 445.08 526.241 445.659C526.866 446.239 527.178 447 527.178 447.943C527.178 448.801 526.925 449.554 526.42 450.202C525.92 450.849 525.232 451.355 524.357 451.719C523.488 452.077 522.485 452.256 521.349 452.256C519.616 452.256 518.235 451.895 517.207 451.173C516.184 450.446 515.585 449.457 515.408 448.207L518.979 448.02C519.087 448.548 519.349 448.952 519.763 449.23C520.178 449.503 520.71 449.639 521.357 449.639C521.994 449.639 522.505 449.517 522.891 449.273C523.283 449.023 523.482 448.702 523.488 448.31C523.482 447.98 523.343 447.71 523.07 447.5C522.798 447.284 522.377 447.119 521.809 447.006L519.542 446.554C518.263 446.298 517.312 445.855 516.687 445.224C516.067 444.594 515.758 443.79 515.758 442.812C515.758 441.972 515.985 441.247 516.44 440.639C516.9 440.031 517.545 439.562 518.374 439.233C519.21 438.903 520.187 438.739 521.306 438.739C522.96 438.739 524.261 439.088 525.21 439.787C526.164 440.486 526.721 441.437 526.88 442.642ZM529.464 452V438.909H533.095V452H529.464ZM531.288 437.222C530.749 437.222 530.286 437.043 529.899 436.685C529.518 436.321 529.328 435.886 529.328 435.381C529.328 434.881 529.518 434.452 529.899 434.094C530.286 433.73 530.749 433.548 531.288 433.548C531.828 433.548 532.288 433.73 532.669 434.094C533.055 434.452 533.249 434.881 533.249 435.381C533.249 435.886 533.055 436.321 532.669 436.685C532.288 437.043 531.828 437.222 531.288 437.222ZM539.737 452.247C538.901 452.247 538.157 452.102 537.504 451.812C536.85 451.517 536.333 451.082 535.952 450.509C535.577 449.929 535.39 449.207 535.39 448.344C535.39 447.616 535.523 447.006 535.79 446.511C536.058 446.017 536.421 445.619 536.881 445.318C537.342 445.017 537.864 444.79 538.45 444.636C539.04 444.483 539.66 444.375 540.308 444.312C541.069 444.233 541.683 444.159 542.148 444.091C542.614 444.017 542.952 443.909 543.163 443.767C543.373 443.625 543.478 443.415 543.478 443.136V443.085C543.478 442.545 543.308 442.128 542.967 441.832C542.631 441.537 542.154 441.389 541.535 441.389C540.881 441.389 540.362 441.534 539.975 441.824C539.589 442.108 539.333 442.466 539.208 442.898L535.85 442.625C536.021 441.83 536.356 441.142 536.856 440.562C537.356 439.977 538.001 439.528 538.79 439.216C539.586 438.898 540.506 438.739 541.552 438.739C542.279 438.739 542.975 438.824 543.64 438.994C544.31 439.165 544.904 439.429 545.421 439.787C545.944 440.145 546.356 440.605 546.657 441.168C546.958 441.724 547.109 442.392 547.109 443.17V452H543.665V450.185H543.563C543.353 450.594 543.072 450.955 542.719 451.267C542.367 451.574 541.944 451.815 541.45 451.991C540.955 452.162 540.384 452.247 539.737 452.247ZM540.776 449.741C541.31 449.741 541.782 449.636 542.191 449.426C542.6 449.21 542.921 448.92 543.154 448.557C543.387 448.193 543.504 447.781 543.504 447.321V445.932C543.39 446.006 543.234 446.074 543.035 446.136C542.842 446.193 542.623 446.247 542.379 446.298C542.134 446.344 541.89 446.386 541.646 446.426C541.401 446.46 541.18 446.491 540.981 446.52C540.555 446.582 540.183 446.682 539.864 446.818C539.546 446.955 539.299 447.139 539.123 447.372C538.947 447.599 538.859 447.884 538.859 448.224C538.859 448.719 539.038 449.097 539.396 449.358C539.759 449.614 540.219 449.741 540.776 449.741ZM552.968 434.545V436.386C552.968 436.909 552.866 437.443 552.661 437.989C552.462 438.528 552.195 439.04 551.86 439.523C551.525 440 551.158 440.406 550.761 440.741L549.158 439.795C549.442 439.347 549.692 438.849 549.908 438.304C550.13 437.759 550.241 437.125 550.241 436.403V434.545H552.968ZM564.638 442.642L561.314 442.847C561.257 442.562 561.135 442.307 560.947 442.08C560.76 441.847 560.513 441.662 560.206 441.526C559.905 441.384 559.544 441.312 559.124 441.312C558.561 441.312 558.087 441.432 557.7 441.67C557.314 441.903 557.121 442.216 557.121 442.608C557.121 442.92 557.246 443.185 557.496 443.401C557.746 443.616 558.175 443.79 558.783 443.92L561.152 444.398C562.425 444.659 563.374 445.08 563.999 445.659C564.624 446.239 564.936 447 564.936 447.943C564.936 448.801 564.683 449.554 564.178 450.202C563.678 450.849 562.99 451.355 562.115 451.719C561.246 452.077 560.243 452.256 559.107 452.256C557.374 452.256 555.993 451.895 554.964 451.173C553.942 450.446 553.342 449.457 553.166 448.207L556.737 448.02C556.845 448.548 557.107 448.952 557.521 449.23C557.936 449.503 558.467 449.639 559.115 449.639C559.751 449.639 560.263 449.517 560.649 449.273C561.041 449.023 561.24 448.702 561.246 448.31C561.24 447.98 561.101 447.71 560.828 447.5C560.555 447.284 560.135 447.119 559.567 447.006L557.3 446.554C556.021 446.298 555.07 445.855 554.445 445.224C553.825 444.594 553.516 443.79 553.516 442.812C553.516 441.972 553.743 441.247 554.197 440.639C554.658 440.031 555.303 439.562 556.132 439.233C556.967 438.903 557.945 438.739 559.064 438.739C560.717 438.739 562.018 439.088 562.967 439.787C563.922 440.486 564.479 441.437 564.638 442.642ZM572.845 452V434.545H579.834C581.118 434.545 582.189 434.736 583.047 435.116C583.905 435.497 584.55 436.026 584.982 436.702C585.413 437.372 585.629 438.145 585.629 439.02C585.629 439.702 585.493 440.301 585.22 440.818C584.947 441.33 584.572 441.75 584.095 442.08C583.624 442.403 583.084 442.634 582.476 442.77V442.94C583.141 442.969 583.763 443.156 584.342 443.503C584.928 443.849 585.402 444.335 585.766 444.96C586.129 445.58 586.311 446.318 586.311 447.176C586.311 448.102 586.081 448.929 585.621 449.656C585.166 450.378 584.493 450.949 583.601 451.369C582.709 451.79 581.609 452 580.303 452H572.845ZM576.536 448.983H579.544C580.572 448.983 581.322 448.787 581.794 448.395C582.266 447.997 582.501 447.469 582.501 446.81C582.501 446.327 582.385 445.901 582.152 445.531C581.919 445.162 581.587 444.872 581.155 444.662C580.729 444.452 580.22 444.347 579.629 444.347H576.536V448.983ZM576.536 441.849H579.271C579.777 441.849 580.226 441.761 580.618 441.585C581.016 441.403 581.328 441.148 581.555 440.818C581.788 440.489 581.905 440.094 581.905 439.634C581.905 439.003 581.68 438.494 581.232 438.108C580.788 437.722 580.158 437.528 579.339 437.528H576.536V441.849ZM594.61 452.256C593.263 452.256 592.104 451.983 591.133 451.438C590.167 450.886 589.423 450.108 588.9 449.102C588.377 448.091 588.116 446.895 588.116 445.514C588.116 444.168 588.377 442.986 588.9 441.969C589.423 440.952 590.158 440.159 591.107 439.591C592.062 439.023 593.181 438.739 594.465 438.739C595.329 438.739 596.133 438.878 596.877 439.156C597.627 439.429 598.281 439.841 598.837 440.392C599.4 440.943 599.837 441.636 600.15 442.472C600.462 443.301 600.619 444.273 600.619 445.386V446.384H589.565V444.134H597.201C597.201 443.611 597.087 443.148 596.86 442.744C596.633 442.341 596.317 442.026 595.914 441.798C595.516 441.565 595.053 441.449 594.525 441.449C593.974 441.449 593.485 441.577 593.059 441.832C592.638 442.082 592.309 442.42 592.07 442.847C591.832 443.267 591.71 443.736 591.704 444.253V446.392C591.704 447.04 591.823 447.599 592.062 448.071C592.306 448.543 592.65 448.906 593.093 449.162C593.536 449.418 594.062 449.545 594.67 449.545C595.073 449.545 595.442 449.489 595.778 449.375C596.113 449.261 596.4 449.091 596.638 448.864C596.877 448.636 597.059 448.358 597.184 448.028L600.542 448.25C600.371 449.057 600.022 449.761 599.494 450.364C598.971 450.96 598.295 451.426 597.465 451.761C596.641 452.091 595.69 452.256 594.61 452.256ZM613.88 442.642L610.556 442.847C610.499 442.562 610.377 442.307 610.19 442.08C610.002 441.847 609.755 441.662 609.448 441.526C609.147 441.384 608.786 441.312 608.366 441.312C607.803 441.312 607.329 441.432 606.942 441.67C606.556 441.903 606.363 442.216 606.363 442.608C606.363 442.92 606.488 443.185 606.738 443.401C606.988 443.616 607.417 443.79 608.025 443.92L610.394 444.398C611.667 444.659 612.616 445.08 613.241 445.659C613.866 446.239 614.178 447 614.178 447.943C614.178 448.801 613.925 449.554 613.42 450.202C612.92 450.849 612.232 451.355 611.357 451.719C610.488 452.077 609.485 452.256 608.349 452.256C606.616 452.256 605.235 451.895 604.207 451.173C603.184 450.446 602.585 449.457 602.408 448.207L605.979 448.02C606.087 448.548 606.349 448.952 606.763 449.23C607.178 449.503 607.71 449.639 608.357 449.639C608.994 449.639 609.505 449.517 609.891 449.273C610.283 449.023 610.482 448.702 610.488 448.31C610.482 447.98 610.343 447.71 610.07 447.5C609.798 447.284 609.377 447.119 608.809 447.006L606.542 446.554C605.263 446.298 604.312 445.855 603.687 445.224C603.067 444.594 602.758 443.79 602.758 442.812C602.758 441.972 602.985 441.247 603.44 440.639C603.9 440.031 604.545 439.562 605.374 439.233C606.21 438.903 607.187 438.739 608.306 438.739C609.96 438.739 611.261 439.088 612.21 439.787C613.164 440.486 613.721 441.437 613.88 442.642ZM623.428 438.909V441.636H615.544V438.909H623.428ZM617.334 435.773H620.964V447.977C620.964 448.312 621.016 448.574 621.118 448.761C621.22 448.943 621.362 449.071 621.544 449.145C621.732 449.219 621.947 449.256 622.192 449.256C622.362 449.256 622.533 449.241 622.703 449.213C622.874 449.179 623.004 449.153 623.095 449.136L623.666 451.838C623.484 451.895 623.229 451.96 622.899 452.034C622.57 452.114 622.169 452.162 621.697 452.179C620.822 452.213 620.055 452.097 619.396 451.83C618.743 451.562 618.234 451.148 617.871 450.585C617.507 450.023 617.328 449.312 617.334 448.455V435.773ZM631.415 452V434.545H638.302C639.62 434.545 640.745 434.781 641.677 435.253C642.614 435.719 643.327 436.381 643.816 437.239C644.31 438.091 644.558 439.094 644.558 440.247C644.558 441.406 644.308 442.403 643.808 443.239C643.308 444.068 642.583 444.705 641.634 445.148C640.691 445.591 639.549 445.812 638.208 445.812H633.597V442.847H637.612C638.316 442.847 638.901 442.75 639.367 442.557C639.833 442.364 640.18 442.074 640.407 441.688C640.64 441.301 640.756 440.821 640.756 440.247C640.756 439.668 640.64 439.179 640.407 438.781C640.18 438.384 639.83 438.082 639.359 437.878C638.893 437.668 638.305 437.562 637.594 437.562H635.106V452H631.415ZM640.842 444.057L645.18 452H641.106L636.862 444.057H640.842ZM650.83 452.247C649.995 452.247 649.251 452.102 648.597 451.812C647.944 451.517 647.427 451.082 647.046 450.509C646.671 449.929 646.484 449.207 646.484 448.344C646.484 447.616 646.617 447.006 646.884 446.511C647.151 446.017 647.515 445.619 647.975 445.318C648.435 445.017 648.958 444.79 649.543 444.636C650.134 444.483 650.754 444.375 651.401 444.312C652.163 444.233 652.776 444.159 653.242 444.091C653.708 444.017 654.046 443.909 654.256 443.767C654.467 443.625 654.572 443.415 654.572 443.136V443.085C654.572 442.545 654.401 442.128 654.06 441.832C653.725 441.537 653.248 441.389 652.629 441.389C651.975 441.389 651.455 441.534 651.069 441.824C650.683 442.108 650.427 442.466 650.302 442.898L646.944 442.625C647.114 441.83 647.45 441.142 647.95 440.562C648.45 439.977 649.094 439.528 649.884 439.216C650.68 438.898 651.6 438.739 652.646 438.739C653.373 438.739 654.069 438.824 654.734 438.994C655.404 439.165 655.998 439.429 656.515 439.787C657.038 440.145 657.45 440.605 657.751 441.168C658.052 441.724 658.202 442.392 658.202 443.17V452H654.759V450.185H654.657C654.447 450.594 654.165 450.955 653.813 451.267C653.461 451.574 653.038 451.815 652.543 451.991C652.049 452.162 651.478 452.247 650.83 452.247ZM651.87 449.741C652.404 449.741 652.876 449.636 653.285 449.426C653.694 449.21 654.015 448.92 654.248 448.557C654.481 448.193 654.597 447.781 654.597 447.321V445.932C654.484 446.006 654.327 446.074 654.129 446.136C653.935 446.193 653.717 446.247 653.472 446.298C653.228 446.344 652.984 446.386 652.739 446.426C652.495 446.46 652.273 446.491 652.075 446.52C651.648 446.582 651.276 446.682 650.958 446.818C650.64 446.955 650.393 447.139 650.217 447.372C650.04 447.599 649.952 447.884 649.952 448.224C649.952 448.719 650.131 449.097 650.489 449.358C650.853 449.614 651.313 449.741 651.87 449.741ZM661.019 452V438.909H664.65V452H661.019ZM662.843 437.222C662.303 437.222 661.84 437.043 661.454 436.685C661.073 436.321 660.883 435.886 660.883 435.381C660.883 434.881 661.073 434.452 661.454 434.094C661.84 433.73 662.303 433.548 662.843 433.548C663.383 433.548 663.843 433.73 664.224 434.094C664.61 434.452 664.803 434.881 664.803 435.381C664.803 435.886 664.61 436.321 664.224 436.685C663.843 437.043 663.383 437.222 662.843 437.222ZM671.189 434.545V452H667.558V434.545H671.189ZM679.055 437.588V434.545H693.391V437.588H688.047V452H684.399V437.588H679.055ZM694.324 452V438.909H697.844V441.193H697.98C698.219 440.381 698.619 439.767 699.182 439.352C699.744 438.932 700.392 438.722 701.125 438.722C701.307 438.722 701.503 438.733 701.713 438.756C701.923 438.778 702.108 438.81 702.267 438.849V442.071C702.097 442.02 701.861 441.974 701.56 441.935C701.259 441.895 700.983 441.875 700.733 441.875C700.199 441.875 699.722 441.991 699.301 442.224C698.886 442.452 698.557 442.77 698.312 443.179C698.074 443.588 697.955 444.06 697.955 444.594V452H694.324ZM707.502 452.247C706.667 452.247 705.923 452.102 705.269 451.812C704.616 451.517 704.099 451.082 703.718 450.509C703.343 449.929 703.156 449.207 703.156 448.344C703.156 447.616 703.289 447.006 703.556 446.511C703.823 446.017 704.187 445.619 704.647 445.318C705.107 445.017 705.63 444.79 706.215 444.636C706.806 444.483 707.425 444.375 708.073 444.312C708.835 444.233 709.448 444.159 709.914 444.091C710.38 444.017 710.718 443.909 710.928 443.767C711.138 443.625 711.244 443.415 711.244 443.136V443.085C711.244 442.545 711.073 442.128 710.732 441.832C710.397 441.537 709.92 441.389 709.3 441.389C708.647 441.389 708.127 441.534 707.741 441.824C707.354 442.108 707.099 442.466 706.974 442.898L703.616 442.625C703.786 441.83 704.121 441.142 704.621 440.562C705.121 439.977 705.766 439.528 706.556 439.216C707.352 438.898 708.272 438.739 709.317 438.739C710.045 438.739 710.741 438.824 711.406 438.994C712.076 439.165 712.67 439.429 713.187 439.787C713.71 440.145 714.121 440.605 714.423 441.168C714.724 441.724 714.874 442.392 714.874 443.17V452H711.431V450.185H711.329C711.119 450.594 710.837 450.955 710.485 451.267C710.133 451.574 709.71 451.815 709.215 451.991C708.721 452.162 708.15 452.247 707.502 452.247ZM708.542 449.741C709.076 449.741 709.548 449.636 709.957 449.426C710.366 449.21 710.687 448.92 710.92 448.557C711.153 448.193 711.269 447.781 711.269 447.321V445.932C711.156 446.006 710.999 446.074 710.8 446.136C710.607 446.193 710.388 446.247 710.144 446.298C709.9 446.344 709.656 446.386 709.411 446.426C709.167 446.46 708.945 446.491 708.746 446.52C708.32 446.582 707.948 446.682 707.63 446.818C707.312 446.955 707.065 447.139 706.888 447.372C706.712 447.599 706.624 447.884 706.624 448.224C706.624 448.719 706.803 449.097 707.161 449.358C707.525 449.614 707.985 449.741 708.542 449.741ZM721.322 444.432V452H717.691V438.909H721.151V441.219H721.305C721.594 440.457 722.08 439.855 722.762 439.412C723.444 438.963 724.271 438.739 725.242 438.739C726.151 438.739 726.944 438.938 727.62 439.335C728.296 439.733 728.822 440.301 729.197 441.04C729.572 441.773 729.759 442.648 729.759 443.665V452H726.129V444.312C726.134 443.511 725.93 442.886 725.515 442.438C725.1 441.983 724.529 441.756 723.802 441.756C723.313 441.756 722.881 441.861 722.506 442.071C722.137 442.281 721.847 442.588 721.637 442.991C721.433 443.389 721.327 443.869 721.322 444.432ZM743.513 442.642L740.189 442.847C740.132 442.562 740.01 442.307 739.822 442.08C739.635 441.847 739.388 441.662 739.081 441.526C738.78 441.384 738.419 441.312 737.999 441.312C737.436 441.312 736.962 441.432 736.575 441.67C736.189 441.903 735.996 442.216 735.996 442.608C735.996 442.92 736.121 443.185 736.371 443.401C736.621 443.616 737.05 443.79 737.658 443.92L740.027 444.398C741.3 444.659 742.249 445.08 742.874 445.659C743.499 446.239 743.811 447 743.811 447.943C743.811 448.801 743.558 449.554 743.053 450.202C742.553 450.849 741.865 451.355 740.99 451.719C740.121 452.077 739.118 452.256 737.982 452.256C736.249 452.256 734.868 451.895 733.839 451.173C732.817 450.446 732.217 449.457 732.041 448.207L735.612 448.02C735.72 448.548 735.982 448.952 736.396 449.23C736.811 449.503 737.342 449.639 737.99 449.639C738.626 449.639 739.138 449.517 739.524 449.273C739.916 449.023 740.115 448.702 740.121 448.31C740.115 447.98 739.976 447.71 739.703 447.5C739.43 447.284 739.01 447.119 738.442 447.006L736.175 446.554C734.896 446.298 733.945 445.855 733.32 445.224C732.7 444.594 732.391 443.79 732.391 442.812C732.391 441.972 732.618 441.247 733.072 440.639C733.533 440.031 734.178 439.562 735.007 439.233C735.842 438.903 736.82 438.739 737.939 438.739C739.592 438.739 740.893 439.088 741.842 439.787C742.797 440.486 743.354 441.437 743.513 442.642ZM746.097 452V438.909H749.728V452H746.097ZM747.921 437.222C747.381 437.222 746.918 437.043 746.532 436.685C746.151 436.321 745.961 435.886 745.961 435.381C745.961 434.881 746.151 434.452 746.532 434.094C746.918 433.73 747.381 433.548 747.921 433.548C748.461 433.548 748.921 433.73 749.302 434.094C749.688 434.452 749.881 434.881 749.881 435.381C749.881 435.886 749.688 436.321 749.302 436.685C748.921 437.043 748.461 437.222 747.921 437.222ZM759.599 438.909V441.636H751.716V438.909H759.599ZM753.506 435.773H757.136V447.977C757.136 448.312 757.188 448.574 757.29 448.761C757.392 448.943 757.534 449.071 757.716 449.145C757.903 449.219 758.119 449.256 758.364 449.256C758.534 449.256 758.705 449.241 758.875 449.213C759.045 449.179 759.176 449.153 759.267 449.136L759.838 451.838C759.656 451.895 759.401 451.96 759.071 452.034C758.741 452.114 758.341 452.162 757.869 452.179C756.994 452.213 756.227 452.097 755.568 451.83C754.915 451.562 754.406 451.148 754.043 450.585C753.679 450.023 753.5 449.312 753.506 448.455V435.773ZM779.161 440.188C779.042 439.773 778.874 439.406 778.658 439.088C778.442 438.764 778.178 438.491 777.866 438.27C777.559 438.043 777.207 437.869 776.809 437.75C776.417 437.631 775.982 437.571 775.505 437.571C774.613 437.571 773.829 437.793 773.153 438.236C772.482 438.679 771.96 439.324 771.585 440.17C771.21 441.011 771.022 442.04 771.022 443.256C771.022 444.472 771.207 445.506 771.576 446.358C771.945 447.21 772.468 447.861 773.144 448.31C773.82 448.753 774.619 448.974 775.539 448.974C776.374 448.974 777.087 448.827 777.678 448.531C778.275 448.23 778.729 447.807 779.042 447.261C779.36 446.716 779.519 446.071 779.519 445.327L780.269 445.438H775.769V442.659H783.073V444.858C783.073 446.392 782.749 447.71 782.102 448.812C781.454 449.909 780.562 450.756 779.425 451.352C778.289 451.943 776.988 452.239 775.522 452.239C773.886 452.239 772.448 451.878 771.21 451.156C769.971 450.429 769.005 449.398 768.312 448.062C767.624 446.722 767.281 445.131 767.281 443.29C767.281 441.875 767.485 440.614 767.894 439.506C768.309 438.392 768.888 437.449 769.633 436.676C770.377 435.903 771.244 435.315 772.232 434.912C773.221 434.509 774.292 434.307 775.445 434.307C776.434 434.307 777.354 434.452 778.207 434.741C779.059 435.026 779.815 435.429 780.474 435.952C781.138 436.474 781.681 437.097 782.102 437.818C782.522 438.534 782.792 439.324 782.911 440.188H779.161ZM794.172 446.426V438.909H797.803V452H794.317V449.622H794.18C793.885 450.389 793.393 451.006 792.706 451.472C792.024 451.937 791.192 452.17 790.209 452.17C789.334 452.17 788.564 451.972 787.899 451.574C787.234 451.176 786.714 450.611 786.339 449.878C785.97 449.145 785.783 448.267 785.777 447.244V438.909H789.408V446.597C789.413 447.369 789.621 447.98 790.03 448.429C790.439 448.878 790.987 449.102 791.675 449.102C792.112 449.102 792.521 449.003 792.902 448.804C793.283 448.599 793.589 448.298 793.822 447.901C794.061 447.503 794.178 447.011 794.172 446.426ZM800.707 452V438.909H804.337V452H800.707ZM802.531 437.222C801.991 437.222 801.528 437.043 801.141 436.685C800.761 436.321 800.57 435.886 800.57 435.381C800.57 434.881 800.761 434.452 801.141 434.094C801.528 433.73 801.991 433.548 802.531 433.548C803.07 433.548 803.531 433.73 803.911 434.094C804.298 434.452 804.491 434.881 804.491 435.381C804.491 435.886 804.298 436.321 803.911 436.685C803.531 437.043 803.07 437.222 802.531 437.222ZM812.07 452.213C811.075 452.213 810.175 451.957 809.368 451.446C808.567 450.929 807.93 450.17 807.459 449.17C806.993 448.165 806.76 446.932 806.76 445.472C806.76 443.972 807.001 442.724 807.484 441.73C807.967 440.73 808.609 439.983 809.411 439.489C810.217 438.989 811.101 438.739 812.061 438.739C812.794 438.739 813.405 438.864 813.893 439.114C814.388 439.358 814.786 439.665 815.087 440.034C815.393 440.398 815.626 440.756 815.786 441.108H815.896V434.545H819.518V452H815.939V449.903H815.786C815.615 450.267 815.374 450.628 815.061 450.986C814.754 451.338 814.354 451.631 813.859 451.864C813.371 452.097 812.774 452.213 812.07 452.213ZM813.22 449.324C813.805 449.324 814.3 449.165 814.703 448.847C815.112 448.523 815.425 448.071 815.641 447.491C815.862 446.912 815.973 446.233 815.973 445.455C815.973 444.676 815.865 444 815.649 443.426C815.433 442.852 815.121 442.409 814.712 442.097C814.303 441.784 813.805 441.628 813.22 441.628C812.624 441.628 812.121 441.79 811.712 442.114C811.303 442.437 810.993 442.886 810.783 443.46C810.572 444.034 810.467 444.699 810.467 445.455C810.467 446.216 810.572 446.889 810.783 447.474C810.999 448.054 811.308 448.509 811.712 448.838C812.121 449.162 812.624 449.324 813.22 449.324ZM828.469 452.256C827.123 452.256 825.964 451.983 824.992 451.438C824.026 450.886 823.282 450.108 822.759 449.102C822.237 448.091 821.975 446.895 821.975 445.514C821.975 444.168 822.237 442.986 822.759 441.969C823.282 440.952 824.018 440.159 824.967 439.591C825.921 439.023 827.04 438.739 828.325 438.739C829.188 438.739 829.992 438.878 830.737 439.156C831.487 439.429 832.14 439.841 832.697 440.392C833.259 440.943 833.697 441.636 834.009 442.472C834.322 443.301 834.478 444.273 834.478 445.386V446.384H823.424V444.134H831.06C831.06 443.611 830.947 443.148 830.719 442.744C830.492 442.341 830.177 442.026 829.773 441.798C829.376 441.565 828.913 441.449 828.384 441.449C827.833 441.449 827.344 441.577 826.918 441.832C826.498 442.082 826.168 442.42 825.93 442.847C825.691 443.267 825.569 443.736 825.563 444.253V446.392C825.563 447.04 825.683 447.599 825.921 448.071C826.165 448.543 826.509 448.906 826.952 449.162C827.396 449.418 827.921 449.545 828.529 449.545C828.933 449.545 829.302 449.489 829.637 449.375C829.972 449.261 830.259 449.091 830.498 448.864C830.737 448.636 830.918 448.358 831.043 448.028L834.401 448.25C834.231 449.057 833.881 449.761 833.353 450.364C832.83 450.96 832.154 451.426 831.325 451.761C830.501 452.091 829.549 452.256 828.469 452.256Z" fill="white"/>
<path d="M1235 407.001H44" stroke="#BC40B0" stroke-width="6" stroke-linecap="round"/>
<path d="M1047 92.0758L407.914 92.077C311.372 92.077 245 86.0777 245 180.067L245 330.049L245 548.024L245 757" stroke="#56AEFF" stroke-width="6" stroke-linecap="round"/>
<path d="M1234.92 -108L1234.92 465.5C1234.92 562.042 1240.92 628.414 1146.93 628.414L996.951 628.414L778.976 628.414L570 628.414L-43.5 628.414" stroke="#F1FF56" stroke-width="6" stroke-linecap="round"/>
<path d="M57.7462 406.549C57.7462 411.256 53.868 415.097 49.0519 415.097C44.2358 415.097 40.3577 411.256 40.3577 406.549C40.3577 401.842 44.2358 398.001 49.0519 398.001C53.868 398.001 57.7462 401.842 57.7462 406.549Z" fill="#BC40B0" stroke="#141218" stroke-width="2"/>
<path d="M465.597 406.549C465.597 411.295 461.857 415.097 457.299 415.097C452.74 415.097 449 411.295 449 406.549C449 401.803 452.74 398.001 457.299 398.001C461.857 398.001 465.597 401.803 465.597 406.549Z" fill="#BC40B0" stroke="#141218" stroke-width="2"/>
<path d="M252.597 406.549C252.597 411.295 248.857 415.097 244.299 415.097C239.74 415.097 236 411.295 236 406.549C236 401.803 239.74 398.001 244.299 398.001C248.857 398.001 252.597 401.803 252.597 406.549Z" fill="#BC40B0" stroke="#141218" stroke-width="2"/>
<path d="M919.597 406.548C919.597 411.294 915.857 415.096 911.299 415.096C906.74 415.096 903 411.294 903 406.548C903 401.802 906.74 398 911.299 398C915.857 398 919.597 401.802 919.597 406.548Z" fill="#BC40B0" stroke="#141218" stroke-width="2"/>
<path d="M1055.6 406.548C1055.6 411.294 1051.86 415.096 1047.3 415.096C1042.74 415.096 1039 411.294 1039 406.548C1039 401.802 1042.74 398 1047.3 398C1051.86 398 1055.6 401.802 1055.6 406.548Z" fill="#BC40B0" stroke="#141218" stroke-width="2"/>
<path d="M1055.6 92.5481C1055.6 97.2942 1051.86 101.096 1047.3 101.096C1042.74 101.096 1039 97.2942 1039 92.5481C1039 87.802 1042.74 84 1047.3 84C1051.86 84 1055.6 87.802 1055.6 92.5481Z" fill="#56AEFF" stroke="#141218" stroke-width="2"/>
<path d="M1243.6 92.5481C1243.6 97.2942 1239.86 101.096 1235.3 101.096C1230.74 101.096 1227 97.2942 1227 92.5481C1227 87.802 1230.74 84 1235.3 84C1239.86 84 1243.6 87.802 1243.6 92.5481Z" fill="#F1FF56" stroke="#141218" stroke-width="2"/>
<path d="M1243.6 244.548C1243.6 249.294 1239.86 253.096 1235.3 253.096C1230.74 253.096 1227 249.294 1227 244.548C1227 239.802 1230.74 236 1235.3 236C1239.86 236 1243.6 239.802 1243.6 244.548Z" fill="#F1FF56" stroke="#141218" stroke-width="2"/>
<path d="M1243.6 503.548C1243.6 508.294 1239.86 512.096 1235.3 512.096C1230.74 512.096 1227 508.294 1227 503.548C1227 498.802 1230.74 495 1235.3 495C1239.86 495 1243.6 498.802 1243.6 503.548Z" fill="#F1FF56" stroke="#141218" stroke-width="2"/>
<path d="M938.597 627.548C938.597 632.294 934.857 636.096 930.299 636.096C925.74 636.096 922 632.294 922 627.548C922 622.802 925.74 619 930.299 619C934.857 619 938.597 622.802 938.597 627.548Z" fill="#F1FF56" stroke="#141218" stroke-width="2"/>
<path d="M604.597 627.548C604.597 632.294 600.857 636.096 596.299 636.096C591.74 636.096 588 632.294 588 627.548C588 622.802 591.74 619 596.299 619C600.857 619 604.597 622.802 604.597 627.548Z" fill="#F1FF56" stroke="#141218" stroke-width="2"/>
<path d="M252.597 627.548C252.597 632.294 248.857 636.096 244.299 636.096C239.74 636.096 236 632.294 236 627.548C236 622.802 239.74 619 244.299 619C248.857 619 252.597 622.802 252.597 627.548Z" fill="#F1FF56" stroke="#141218" stroke-width="2"/>
<path d="M758.597 92.5481C758.597 97.2942 754.857 101.096 750.299 101.096C745.74 101.096 742 97.2942 742 92.5481C742 87.802 745.74 84 750.299 84C754.857 84 758.597 87.802 758.597 92.5481Z" fill="#56AEFF" stroke="#141218" stroke-width="2"/>
<path d="M517.597 92.5481C517.597 97.2942 513.857 101.096 509.299 101.096C504.74 101.096 501 97.2942 501 92.5481C501 87.802 504.74 84 509.299 84C513.857 84 517.597 87.802 517.597 92.5481Z" fill="#56AEFF" stroke="#141218" stroke-width="2"/>
<path d="M252.597 244.548C252.597 249.294 248.857 253.096 244.299 253.096C239.74 253.096 236 249.294 236 244.548C236 239.802 239.74 236 244.299 236C248.857 236 252.597 239.802 252.597 244.548Z" fill="#56AEFF" stroke="#141218" stroke-width="2"/>
<path d="M1243.6 406.548C1243.6 411.294 1239.86 415.096 1235.3 415.096C1230.74 415.096 1227 411.294 1227 406.548C1227 401.802 1230.74 398 1235.3 398C1239.86 398 1243.6 401.802 1243.6 406.548Z" fill="#99168C" stroke="#141218" stroke-width="2"/>
</g>
<defs>
<clipPath id="clip0_111_3">
<rect width="1280" height="720" rx="35" fill="white"/>
</clipPath>
</defs>
</svg>
