<svg width="80" height="66" viewBox="0 0 80 66" fill="none" xmlns="http://www.w3.org/2000/svg">
<path d="M79.9759 0.402765C76.4948 2.85825 72.6405 4.73631 68.5615 5.9646C66.3721 3.44727 63.4625 1.66306 60.2261 0.85326C56.9897 0.0434647 53.5827 0.247163 50.4658 1.43681C47.3489 2.62645 44.6726 4.74464 42.7988 7.50489C40.925 10.2651 39.9442 13.5343 39.9889 16.8702V20.5053C33.6005 20.671 27.2704 19.2542 21.5622 16.381C15.8539 13.5079 10.9449 9.26766 7.2722 4.03795C7.2722 4.03795 -7.26854 36.7546 25.4481 51.2954C17.9616 56.3773 9.04311 58.9254 0.00183105 58.5658C32.7185 76.7417 72.7056 58.5658 72.7056 16.7611C72.7022 15.7485 72.6049 14.7385 72.4148 13.7439C76.1248 10.0851 78.743 5.46554 79.9759 0.402765Z" fill="#B0C1D5"/>
</svg>
